<svg xmlns="http://www.w3.org/2000/svg" width="399.358" height="117.192" viewBox="0 0 399.358 117.192">
  <g id="Grupo_83" data-name="Grupo 83" transform="translate(181.679 411)">
    <g id="Grupo_82" data-name="Grupo 82" transform="translate(-2539.179 -4166.594)">
      <g id="Grupo_73" data-name="Grupo 73" transform="translate(2357.5 3755.594)">
        <g id="Grupo_9" data-name="Grupo 9" transform="translate(0 0)">
          <g id="Grupo_27" data-name="Grupo 27" transform="translate(0 0)">
            <circle id="Elipse_2" data-name="Elipse 2" cx="58.596" cy="58.596" r="58.596" fill="#fe0553"/>
            <text id="_" data-name="" transform="translate(23.438 84.438)" fill="#fff" font-size="69" font-family="FontAwesome5Pro-Solid, 'Font Awesome \35  Pro'" letter-spacing="0.008em"><tspan x="0" y="0"></tspan></text>
          </g>
        </g>
      </g>
      <g id="logos" transform="translate(2522.741 3777.984)">
        <g id="Tablet-Portrait" transform="translate(0 0)">
          <g id="logo-modificado" transform="translate(0 0)">
            <path id="Fill-3" d="M27.324,63.512A22.9,22.9,0,0,1,4.638,40.4,22.9,22.9,0,0,1,27.324,17.294,22.9,22.9,0,0,1,50.01,40.4a22.9,22.9,0,0,1-22.686,23.11Zm0-50.407A27.051,27.051,0,0,0,.527,40.4a27.049,27.049,0,0,0,26.8,27.294A27.047,27.047,0,0,0,54.119,40.4a27.052,27.052,0,0,0-26.8-27.3Z" transform="translate(-0.527 4.707)" fill="#fff"/>
            <path id="Fill-5" d="M59.08,63.512A22.9,22.9,0,0,1,36.4,40.4a22.688,22.688,0,1,1,45.368,0A22.9,22.9,0,0,1,59.08,63.512m0-50.407a27.05,27.05,0,0,0-26.8,27.3,26.8,26.8,0,1,0,53.591,0,27.049,27.049,0,0,0-26.8-27.3" transform="translate(25.255 4.707)" fill="#fff"/>
            <path id="Fill-7" d="M64.042,75.675h3.95V3.274h-3.95Z" transform="translate(51.037 -3.274)" fill="#fff"/>
            <path id="Fill-9" d="M95.2,63.512A22.9,22.9,0,0,1,72.511,40.4a22.689,22.689,0,1,1,45.37,0A22.9,22.9,0,0,1,95.2,63.512ZM119.916,13.1h-1.935V26.056c-.058-.1-.112-.2-.17-.294v0a.6.6,0,0,1-.056-.082c-.181-.286-.368-.571-.554-.85-.005,0-.005,0-.005,0-.085-.129-.174-.255-.265-.382-.007-.011-.018-.022-.025-.031-.116-.167-.239-.333-.359-.5,0,0,0-.009-.011-.014-.063-.087-.129-.172-.194-.255-.265-.337-.524-.669-.8-.991a.1.1,0,0,0-.013-.016c-.083-.1-.168-.2-.25-.3-.163-.188-.332-.375-.5-.556l0,0c-.114-.13-.239-.257-.361-.384a.151.151,0,0,0-.016-.014c-.125-.14-.261-.275-.39-.413a.05.05,0,0,1-.015-.011c-.158-.156-.319-.308-.471-.458l-.011-.011c-.208-.194-.413-.384-.625-.574,0-.005-.011-.009-.014-.014-.13-.114-.255-.226-.38-.339-.17-.145-.342-.284-.513-.426,0,0,0,0-.005-.007-.158-.127-.312-.254-.475-.377,0-.005-.011-.009-.015-.014-.132-.1-.268-.208-.406-.31a.048.048,0,0,1-.011-.009q-.332-.25-.676-.491a.073.073,0,0,1-.016-.009c-.5-.35-1.011-.687-1.538-1a.043.043,0,0,0-.016-.009c-.194-.118-.395-.234-.6-.348l-.025-.014c-.129-.074-.255-.145-.384-.216l0,0c-.3-.159-.592-.315-.9-.466h0c-.1-.053-.212-.105-.322-.156-.005,0-.009,0-.013,0-.265-.13-.536-.255-.806-.375,0,0-.007,0-.007,0-.134-.056-.265-.112-.39-.167-.007,0-.007,0-.011,0-.245-.1-.477-.2-.717-.288a.026.026,0,0,1-.011,0c-.127-.047-.257-.1-.382-.143v0c-.352-.129-.707-.252-1.06-.366h0l-.161-.047-.02-.007c-.326-.1-.649-.194-.984-.284h0c-.125-.034-.255-.069-.379-.1l0,0c-.275-.071-.545-.134-.824-.192l-.007,0c-.665-.147-1.343-.263-2.024-.355-.241-.033-.48-.069-.723-.094h0c-.31-.034-.627-.056-.948-.08-.1-.007-.212-.018-.319-.024h0c-.366-.024-.736-.034-1.1-.04-.169,0-.339-.014-.5-.014h0a26.488,26.488,0,0,0-18.95,7.994c-.446.458-.875.937-1.294,1.428A27.472,27.472,0,0,0,68.4,40.411c0,.563.022,1.123.053,1.678q.071,1.256.252,2.48c.005.038.016.076.02.116a27.413,27.413,0,0,0,7.519,15.027A26.479,26.479,0,0,0,95.2,67.7h0c.413,0,.828-.011,1.243-.029h.024c.1-.005.214-.013.326-.022a.051.051,0,0,0,.018,0c.3-.02.6-.04.9-.069l.027,0c.109-.009.217-.02.319-.033a.186.186,0,0,0,.031,0c.386-.043.766-.091,1.143-.149a.378.378,0,0,0,.051-.007h.015c.25-.043.509-.092.757-.141s.522-.1.783-.154l.007,0c.279-.058.549-.123.824-.188a.137.137,0,0,1,.043-.013c.111-.029.212-.056.321-.083a.1.1,0,0,0,.022-.007c.335-.087.658-.183.984-.284.007,0,.022-.005.033-.009.038-.014.083-.024.121-.036a.266.266,0,0,1,.031-.007c.353-.114.708-.245,1.06-.368l.011-.005.344-.13a.086.086,0,0,0,.034-.016c.239-.091.477-.188.723-.286,0,0,.007,0,.011,0,.121-.054.248-.109.375-.163l.018-.009c.27-.116.542-.241.806-.37v0c.112-.051.223-.105.332-.158,0,0,0,0,0,0,.3-.15.6-.308.9-.467l.02-.007.348-.2.043-.024c.2-.114.4-.23.6-.35a.119.119,0,0,1,.024-.014c.13-.08.261-.156.39-.236a.054.054,0,0,1,.02-.013c.208-.132.419-.268.625-.413a.246.246,0,0,0,.036-.024l.455-.3a.033.033,0,0,1,.011-.014c.236-.159.464-.328.688-.5a.226.226,0,0,1,.036-.018q.182-.144.37-.288c.007-.005.015-.014.025-.024.159-.123.321-.254.478-.382a.026.026,0,0,1,.013-.011c.134-.112.268-.223.408-.333,0-.005.009-.011.013-.014.159-.14.312-.277.467-.415,0,0,0-.005.007-.005.2-.185.406-.37.6-.56a.064.064,0,0,0,.016-.013c.169-.159.333-.319.493-.478a.071.071,0,0,0,.025-.027c.129-.125.25-.257.371-.386a.124.124,0,0,1,.02-.024c.125-.127.25-.261.371-.391.007-.013.024-.024.033-.036.14-.158.279-.313.422-.473.1-.118.2-.239.3-.355a.135.135,0,0,0,.016-.022c.219-.261.429-.525.64-.794a.113.113,0,0,1,.02-.022c.112-.14.219-.275.321-.417a.015.015,0,0,0,.007-.013c.116-.158.23-.313.344-.473a.171.171,0,0,1,.033-.043c.092-.13.187-.265.275-.4a.076.076,0,0,0,.015-.022c.118-.17.236-.341.341-.515,0,0,0-.011.007-.014.091-.129.17-.263.255-.4a.085.085,0,0,0,.013-.013c.047-.089.1-.174.15-.261V67.692h4.011V13.1Z" transform="translate(54.576 4.707)" fill="#fff"/>
            <path id="Fill-10" d="M126.962,63.512a22.9,22.9,0,0,1-22.69-23.11,22.691,22.691,0,1,1,45.374,0,22.9,22.9,0,0,1-22.684,23.11ZM151.683,13.1h-1.94V26.056c-.056-.1-.111-.2-.174-.294v0c-.018-.027-.036-.053-.053-.082-.178-.286-.366-.571-.554-.85,0,0,0,0,0,0-.091-.129-.178-.255-.265-.382-.011-.011-.018-.022-.027-.031-.114-.167-.232-.333-.355-.5,0,0-.011-.009-.011-.014-.065-.087-.129-.172-.2-.255-.257-.337-.52-.669-.792-.991-.005-.005-.013-.011-.013-.016-.087-.1-.17-.2-.254-.3-.163-.188-.328-.375-.495-.556,0,0,0,0,0,0-.12-.13-.241-.257-.362-.384,0,0-.007-.009-.013-.014-.132-.14-.261-.275-.4-.413l-.011-.011c-.158-.156-.315-.308-.475-.458,0,0-.007-.007-.007-.011-.207-.194-.413-.384-.623-.574a.08.08,0,0,1-.018-.014c-.129-.114-.255-.226-.38-.339-.169-.145-.335-.284-.507-.426a.03.03,0,0,1-.013-.007c-.154-.127-.31-.254-.473-.377a.065.065,0,0,0-.016-.014c-.129-.1-.265-.208-.4-.31a.047.047,0,0,1-.011-.009c-.223-.167-.451-.33-.681-.491l-.014-.009c-.5-.35-1.011-.687-1.535-1a.04.04,0,0,1-.018-.009c-.2-.118-.4-.234-.6-.348a.181.181,0,0,1-.025-.014c-.13-.074-.257-.145-.386-.216l0,0c-.294-.159-.592-.315-.893-.466h0c-.107-.053-.214-.105-.321-.156-.009,0-.013,0-.016,0-.27-.13-.534-.255-.8-.375a.026.026,0,0,1-.011,0l-.393-.167a.026.026,0,0,1-.013,0c-.234-.1-.473-.2-.707-.288-.011,0-.014,0-.014,0-.127-.047-.254-.1-.384-.143,0,0,0,0,0,0-.346-.129-.7-.252-1.058-.366h0L134.8,14.3l-.022-.007c-.328-.1-.652-.194-.984-.284h-.005c-.121-.034-.248-.069-.377-.1,0,0,0,0,0,0-.27-.071-.547-.134-.819-.192a.023.023,0,0,0-.011,0c-.663-.147-1.341-.263-2.024-.355-.241-.033-.482-.069-.723-.094-.315-.034-.629-.056-.946-.08-.112-.007-.214-.018-.326-.024h0c-.364-.024-.732-.034-1.1-.04-.167,0-.335-.014-.5-.014h0A26.5,26.5,0,0,0,108,21.108c-.451.458-.875.937-1.29,1.428a27.479,27.479,0,0,0-6.559,17.874c0,.563.022,1.123.056,1.678.051.837.129,1.665.254,2.48.009.038.016.076.024.116A27.383,27.383,0,0,0,108,59.711,26.487,26.487,0,0,0,126.955,67.7h0c.408,0,.824-.011,1.236-.029h.022c.112-.005.221-.013.328-.022a.067.067,0,0,0,.02,0c.3-.02.6-.04.9-.069l.027,0c.109-.009.216-.02.323-.033a.137.137,0,0,0,.025,0c.384-.043.763-.091,1.138-.149.018,0,.04,0,.058-.007h.013c.257-.043.5-.092.761-.141s.518-.1.779-.154a.023.023,0,0,0,.011,0c.272-.058.549-.123.819-.188a.186.186,0,0,1,.045-.013c.107-.029.212-.056.321-.083a.065.065,0,0,0,.02-.007c.332-.087.656-.183.984-.284a.168.168,0,0,0,.036-.009c.038-.014.08-.024.127-.036,0,0,.015,0,.022-.007.359-.114.712-.245,1.058-.368l.016-.005c.114-.043.23-.087.339-.13a.158.158,0,0,0,.038-.016c.245-.091.484-.188.719-.286a.034.034,0,0,1,.013,0l.375-.163a.109.109,0,0,0,.022-.009c.272-.116.536-.241.806-.37l0,0c.114-.051.217-.105.333-.158v0c.3-.15.6-.308.893-.467a.123.123,0,0,0,.024-.007c.112-.069.226-.132.346-.2.013-.009.031-.016.04-.024.2-.114.4-.23.6-.35,0-.007.018-.011.024-.014.127-.08.255-.156.384-.236l.02-.013c.21-.132.424-.268.632-.413a.232.232,0,0,0,.034-.024c.152-.1.3-.2.453-.3,0-.007.007-.013.014-.014.23-.159.462-.328.688-.5a.073.073,0,0,1,.029-.018c.123-.1.25-.192.37-.288.009-.005.016-.014.029-.024.158-.123.319-.254.477-.382a.042.042,0,0,0,.016-.011c.134-.112.265-.223.4-.333a.043.043,0,0,1,.016-.014c.161-.14.313-.277.469-.415a.006.006,0,0,0,0-.005c.207-.185.411-.37.607-.56a.082.082,0,0,1,.013-.013c.17-.159.335-.319.5-.478l.024-.027c.123-.125.248-.257.37-.386a.2.2,0,0,0,.02-.024c.125-.127.246-.261.37-.391.011-.013.024-.024.034-.036.143-.158.283-.313.415-.473.105-.118.2-.239.306-.355a.076.076,0,0,0,.018-.022c.217-.261.429-.525.643-.794l.02-.022c.1-.14.212-.275.313-.417a.04.04,0,0,0,.011-.013c.12-.158.23-.313.341-.473a.318.318,0,0,0,.031-.043c.094-.13.185-.265.281-.4a.135.135,0,0,1,.013-.022c.118-.17.234-.341.342-.515l.014-.014c.076-.129.163-.263.246-.4a.023.023,0,0,1,.007-.013c.058-.089.105-.174.154-.261V67.69h4.015V13.1Z" transform="translate(80.354 4.707)" fill="#fff"/>
          </g>
        </g>
      </g>
    </g>
  </g>
</svg>
